<?xml version="1.0" encoding="utf-8"?>
<!-- Generator: Adobe Illustrator 16.0.0, SVG Export Plug-In . SVG Version: 6.00 Build 0)  -->
<!DOCTYPE svg PUBLIC "-//W3C//DTD SVG 1.1//EN" "http://www.w3.org/Graphics/SVG/1.1/DTD/svg11.dtd">
<svg version="1.1" xmlns="http://www.w3.org/2000/svg" xmlns:xlink="http://www.w3.org/1999/xlink" x="0px" y="0px" width="1166px"
	 height="1177px" viewBox="0 0 1166 1177" enable-background="new 0 0 1166 1177" xml:space="preserve">
<g id="TÅO">
	<rect width="1166" height="1177"/>
</g>
<g id="Layer_1">
	<g>
		<g>
			<g>
				<g>
					<path fill="#FFFFFF" d="M573.63,595.527h52.632c13.022,0,21.21,2.955,26.716,8.459c3.356,3.356,5.774,8.189,5.774,14.634v0.27
						c0,11.144-6.713,17.991-16.783,21.481c12.082,3.49,19.87,9.936,19.87,22.824v0.269c0,15.036-12.351,26.046-36.116,26.046
						H573.63V595.527z M617.937,632.449c6.712,0,9.935-2.282,9.935-6.444v-0.269c0-4.162-3.357-6.443-10.069-6.443H604.24v13.156
						H617.937z M619.95,665.746c6.848,0,10.338-2.819,10.338-6.848v-0.268c0-4.028-3.357-6.848-10.205-6.848H604.24v13.963H619.95z"
						/>
					<path fill="#FFFFFF" d="M666.529,642.787v-0.268c0-27.255,22.42-49.006,51.422-49.006c29,0,51.154,21.482,51.154,48.736v0.27
						c0,27.254-22.423,49.004-51.423,49.004S666.529,670.042,666.529,642.787z M737.418,642.787v-0.268
						c0-11.145-7.653-21.214-19.736-21.214c-11.949,0-19.468,9.935-19.468,20.944v0.27c0,11.144,7.653,21.213,19.737,21.213
						C729.9,663.732,737.418,653.797,737.418,642.787z"/>
					<path fill="#FFFFFF" d="M802.928,641.714l-30.479-46.187h35.713l13.561,22.422l13.694-22.422h35.042l-30.477,45.918
						l31.818,48.064h-35.713l-14.902-24.436l-15.037,24.436h-35.042L802.928,641.714z"/>
				</g>
			</g>
			<g>
				<path fill="#FFFFFF" d="M574.781,476.477h6.982v93.974h-6.982V476.477z"/>
				<path fill="#FFFFFF" d="M610.624,476.477h6.577l64.841,81.757v-81.757h6.714v93.974h-5.236l-66.185-83.503v83.503h-6.711
					V476.477z"/>
				<path fill="#FFFFFF" d="M742.723,482.786h-32.757v-6.31h72.494v6.31h-32.756v87.664h-6.981V482.786z"/>
				<path fill="#FFFFFF" d="M803.67,476.477h66.856v6.31h-59.875v37.187h53.834v6.311h-53.834v37.857h60.546v6.31H803.67V476.477z"
					/>
				<path fill="#FFFFFF" d="M893.617,476.477h39.468c5.819,0,10.962,0.828,15.439,2.483c4.475,1.657,8.143,3.916,11.008,6.779
					c2.235,2.238,3.981,4.856,5.235,7.854c1.253,3,1.879,6.198,1.879,9.6v0.269c0,3.939-0.693,7.451-2.079,10.537
					c-1.391,3.088-3.312,5.752-5.773,7.988c-2.463,2.238-5.372,4.051-8.726,5.438c-3.357,1.389-7.004,2.349-10.943,2.886
					l31.013,40.141h-8.861l-29.937-38.932h-0.269h-30.474v38.932h-6.981V476.477z M932.28,525.209c3.937,0,7.584-0.493,10.942-1.482
					c3.356-0.984,6.243-2.398,8.658-4.24c2.417-1.842,4.318-4.086,5.707-6.735c1.385-2.647,2.081-5.679,2.081-9.091v-0.27
					c0-6.372-2.349-11.4-7.047-15.082c-4.699-3.681-11.344-5.522-19.937-5.522h-32.085v42.423H932.28z"/>
			</g>
		</g>
		<g>
			<g>
				
					<polyline fill="none" stroke="#FFFFFF" stroke-width="10.626" stroke-linecap="round" stroke-linejoin="round" stroke-miterlimit="10" points="
					496.374,671.628 347.04,585.408 197.695,671.628 				"/>
				
					<polyline fill="none" stroke="#FFFFFF" stroke-width="10.626" stroke-linecap="round" stroke-linejoin="round" stroke-miterlimit="10" points="
					472.666,685.595 347.04,613.064 221.405,685.595 				"/>
				
					<polyline fill="none" stroke="#FFFFFF" stroke-width="10.626" stroke-linecap="round" stroke-linejoin="round" stroke-miterlimit="10" points="
					448.958,699.563 347.04,640.718 245.114,699.563 				"/>
				
					<polyline fill="none" stroke="#FFFFFF" stroke-width="10.626" stroke-linecap="round" stroke-linejoin="round" stroke-miterlimit="10" points="
					425.25,713.396 347.04,668.243 269.28,713.66 				"/>
				
					<polyline fill="none" stroke="#FFFFFF" stroke-width="10.626" stroke-linecap="round" stroke-linejoin="round" stroke-miterlimit="10" points="
					401.545,727.499 347.04,696.028 292.533,727.499 				"/>
				
					<polyline fill="none" stroke="#FFFFFF" stroke-width="10.626" stroke-linecap="round" stroke-linejoin="round" stroke-miterlimit="10" points="
					377.838,741.466 347.04,723.686 316.241,741.466 				"/>
				
					<line fill="none" stroke="#FFFFFF" stroke-width="10.626" stroke-linecap="round" stroke-linejoin="round" stroke-miterlimit="10" x1="347.803" y1="751.732" x2="342.077" y2="755.041"/>
			</g>
			<g>
				
					<polyline fill="none" stroke="#FFFFFF" stroke-width="10.626" stroke-linecap="round" stroke-linejoin="round" stroke-miterlimit="10" points="
					347.059,412.982 347.059,585.416 496.398,671.645 				"/>
				
					<polyline fill="none" stroke="#FFFFFF" stroke-width="10.626" stroke-linecap="round" stroke-linejoin="round" stroke-miterlimit="10" points="
					371.01,426.528 371.01,571.59 496.638,644.126 				"/>
				
					<polyline fill="none" stroke="#FFFFFF" stroke-width="10.626" stroke-linecap="round" stroke-linejoin="round" stroke-miterlimit="10" points="
					394.958,440.076 394.958,557.761 496.882,616.61 				"/>
				
					<polyline fill="none" stroke="#FFFFFF" stroke-width="10.626" stroke-linecap="round" stroke-linejoin="round" stroke-miterlimit="10" points="
					418.795,453.689 418.795,543.999 497.012,588.635 				"/>
				
					<polyline fill="none" stroke="#FFFFFF" stroke-width="10.626" stroke-linecap="round" stroke-linejoin="round" stroke-miterlimit="10" points="
					442.862,467.167 442.862,530.105 497.368,561.574 				"/>
				
					<polyline fill="none" stroke="#FFFFFF" stroke-width="10.626" stroke-linecap="round" stroke-linejoin="round" stroke-miterlimit="10" points="
					466.811,480.717 466.811,516.279 497.61,534.06 				"/>
				
					<line fill="none" stroke="#FFFFFF" stroke-width="10.626" stroke-linecap="round" stroke-linejoin="round" stroke-miterlimit="10" x1="490.718" y1="501.595" x2="496.449" y2="504.896"/>
			</g>
			<g>
				
					<polyline fill="none" stroke="#FFFFFF" stroke-width="10.626" stroke-linecap="round" stroke-linejoin="round" stroke-miterlimit="10" points="
					197.728,671.619 347.061,585.401 347.064,412.959 				"/>
				
					<polyline fill="none" stroke="#FFFFFF" stroke-width="10.626" stroke-linecap="round" stroke-linejoin="round" stroke-miterlimit="10" points="
					197.484,644.104 323.108,571.573 323.117,426.507 				"/>
				
					<polyline fill="none" stroke="#FFFFFF" stroke-width="10.626" stroke-linecap="round" stroke-linejoin="round" stroke-miterlimit="10" points="
					197.24,616.592 299.162,557.75 299.164,440.056 				"/>
				
					<polyline fill="none" stroke="#FFFFFF" stroke-width="10.626" stroke-linecap="round" stroke-linejoin="round" stroke-miterlimit="10" points="
					197.114,589.142 275.323,543.986 274.872,453.935 				"/>
				
					<polyline fill="none" stroke="#FFFFFF" stroke-width="10.626" stroke-linecap="round" stroke-linejoin="round" stroke-miterlimit="10" points="
					196.754,561.56 251.259,530.092 251.259,467.154 				"/>
				
					<polyline fill="none" stroke="#FFFFFF" stroke-width="10.626" stroke-linecap="round" stroke-linejoin="round" stroke-miterlimit="10" points="
					196.512,534.043 227.311,516.263 227.309,480.7 				"/>
				
					<line fill="none" stroke="#FFFFFF" stroke-width="10.626" stroke-linecap="round" stroke-linejoin="round" stroke-miterlimit="10" x1="202.637" y1="502.9" x2="202.635" y2="496.288"/>
			</g>
		</g>
	</g>
</g>
</svg>
